PathFileType	4	(X/Y/Z)	C:/Users/beibeiliu/ov580/test_trc/User2\sequence.34_training_dense_right.trc
DataRate	CameraRate	NumFrames	NumMarkers	Units	OrigDataRate	OrigDataStartFrame	OrigNumFrames
120	120	8	19	mm	120	29	86
Frame#	Time	ThumbCMC			ThumbMCP			ThumbIP			ThumbTip			IndexMCP			IndexPIP			IndexTip			MiddleMCP			MiddlePIP			MiddleTip			RingMCP			RingPIP			RingTip			PinkyMCP			PinkyPIP			PinkyTip			BackHand1			BackHand2			BackHand3	
		X0	Y0	Z0	X1	Y1	Z1	X2	Y2	Z2	X3	Y3	Z3	X4	Y4	Z4	X5	Y5	Z5	X6	Y6	Z6	X7	Y7	Z7	X8	Y8	Z8	X9	Y9	Z9	X10	Y10	Z10	X11	Y11	Z11	X12	Y12	Z12	X13	Y13	Z13	X14	Y14	Z14	X15	Y15	Z15	X16	Y16	Z16	X17	Y17	Z17	X18	Y18	Z18	
28	0.233333	73.0644	72.9329	-0.711012	46.4716	75.7475	-21.6144	25.7236	78.7822	-45.0127	14.6707	80.1219	-71.3413	97.0332	126.229	-63.0083	92.1627	136.393	-89.9097	77.7689	125.604	-122.206	121.934	119.561	-73.7433	116.855	128.824	-106.834	100.434	115.9	-140.05	136.438	100.105	-81.716	132.159	105.618	-111.066	114.65	97.3362	-136.731	146.05	71.5992	-80.4601	140.679	75.0306	-110.455	128.216	70.409	-133.494	140.523	75.655	-27.1793	145.491	60.6514	3.26317	112.577	89.2628	-4.80004	
29	0.241667	74.9754	68.6788	-0.780921	47.8563	68.9638	-20.9	21.6889	74.926	-46.6697	16.7003	75.3741	-74.9678	100.093	120.41	-67.7145	94.9041	131.444	-92.5036	83.7527	123.896	-121.994	124.421	115.507	-77.012	119.394	122.673	-111.964	100.341	112.523	-142.901	138.504	93.2974	-81.6252	132.911	101.015	-113.738	115.794	94.0373	-140.545	146.835	66.8262	-79.6497	142.976	69.5436	-112.391	132.274	65.158	-134.776	141.618	72.7042	-30.0875	147.305	58.8327	1.90822	111.915	84.247	-3.26519	
30	0.25	72.2985	65.1819	-6.46297	46.1034	63.6743	-26.1238	23.7003	64.0059	-49.8334	15.4826	62.1887	-75.0151	95.877	111.952	-70.6606	95.8529	119.826	-101.55	85.8448	113.916	-128.882	123.037	104.818	-82.8857	118.987	111.549	-119.456	104.388	97.1499	-149.127	139.032	85.3094	-87.9885	133.26	90.7462	-117.653	119.652	78.6455	-148.078	145.898	59.2641	-83.1747	141.049	61.2337	-113.524	132.053	56.0819	-136.443	141.714	64.8037	-33.0238	143.977	55.2939	-3.06614	112.808	79.3543	-8.12241	
31	0.258333	70.5642	55.464	-10.3555	43.4177	51.6851	-33.9767	22.0644	49.4196	-56.6116	11.827	45.0585	-83.5563	96.8266	95.4368	-78.1958	92.1612	104.012	-111.273	85.2401	92.2793	-139.794	121.255	91.6819	-91.5212	117.864	92.4771	-126.845	100.091	75.6994	-157.257	135.233	72.6167	-94.2564	132.587	72.454	-124.65	117.499	63.7563	-149.219	146.586	45.929	-85.9616	140.766	46.7033	-114.867	128.539	41.5063	-139.685	137.693	57.6587	-37.0997	140.88	51.6216	-2.70075	112.292	70.6066	-15.0669	
32	0.266667	65.0019	47.319	-9.88337	39.175	39.6393	-36.2927	17.2673	34.8114	-61.5017	11.5809	26.1679	-87.075	91.41	81.3104	-84.1281	84.5492	84.8542	-120.07	79.0631	70.4847	-143.11	114.606	75.344	-94.2169	108.742	74.3586	-132.755	99.5874	51.1296	-159.911	131.53	58.1829	-95.9957	127.352	56.6622	-126.673	114.92	39.7105	-153.681	142.137	35.6649	-84.993	140.798	31.4695	-116.007	124.317	23.3985	-141.224	137.65	49.6413	-37.7984	140.502	43.7837	-7.49525	108.208	64.7999	-21.3724	
33	0.275	63.7642	42.7778	-11.4591	38.0546	33.1761	-31.3507	17.2928	25.4353	-58.402	9.42521	18.2407	-86.8711	84.7782	77.0612	-89.6335	82.2558	75.1937	-119.373	78.2545	56.7127	-144.267	113.253	67.1797	-95.2806	106.39	65.224	-132.974	94.5826	43.2514	-157.57	129.09	52.2214	-99.6754	124.981	47.4897	-127.718	113.278	29.8408	-149.878	140.093	32.1835	-86.6981	136.715	27.3622	-115.116	124.146	16.8097	-141.75	134.094	49.0836	-37.104	135.318	45.0507	-7.86657	100.904	62.1578	-17.2898	
34	0.283333	64.7266	47.2896	-12.3572	37.254	39.5785	-33.9683	21.8054	31.9111	-58.162	10.8233	25.6517	-87.2362	88.904	80.285	-85.9134	79.8799	81.9225	-119.954	74.9059	65.1232	-141.575	108.133	78.6571	-95.7545	104.687	73.996	-129.271	90.8604	48.523	-155.903	125.95	60.0628	-95.4091	123.119	55.3934	-123.797	104.146	38.0885	-150.064	138.3	37.6631	-85.5924	134.244	32.8907	-115.058	119.806	25.6636	-137.543	134.056	49.4809	-34.7625	134.793	45.9156	-3.1871	102.278	66.4701	-17.8869	
35	0.291667	66.9516	52.4601	-6.69491	39.0346	47.812	-33.8874	19.1659	42.5014	-58.5685	17.2474	36.0371	-85.3266	86.1687	95.6159	-82.3609	84.0557	94.2072	-110.898	72.173	81.885	-136.937	110.834	90.653	-92.136	104.57	88.8117	-126.663	92.2824	66.4261	-152.908	128.864	69.5743	-91.5765	118.77	70.5167	-123.846	103.916	52.1609	-148.935	137.669	48.9567	-86.6682	132.243	46.0518	-111.29	117.755	37.5053	-136.66	132.997	59.7665	-32.8135	137.141	49.8144	-0.00017121	107.158	71.8139	-13.7167	
